<svg xmlns="http://www.w3.org/2000/svg" viewBox="0 0 100 120" width="100" height="120">
  <defs>
    <linearGradient id="roofGradient" x1="0%" y1="0%" x2="100%" y2="100%">
      <stop offset="0%" style="stop-color:#D4A574;stop-opacity:1" />
      <stop offset="100%" style="stop-color:#E8C4A0;stop-opacity:1" />
    </linearGradient>
  </defs>
  
  <!-- Roof -->
  <path d="M10 50 L50 15 L90 50 Z" fill="url(#roofGradient)"/>
  
  <!-- Chimney -->
  <rect x="20" y="20" width="8" height="15" fill="#D4A574"/>
  
  <!-- Bricks with logo colors -->
  <rect x="15" y="55" width="30" height="12" fill="#2E7D32" rx="1"/>
  <rect x="50" y="55" width="35" height="12" fill="#E8C4A0" rx="1"/>
  
  <rect x="15" y="72" width="25" height="12" fill="#E8C4A0" rx="1"/>
  <rect x="45" y="72" width="40" height="12" fill="#C62828" rx="1"/>
  
  <rect x="15" y="89" width="35" height="12" fill="#E8C4A0" rx="1"/>
  <rect x="55" y="89" width="30" height="12" fill="#E8C4A0" rx="1"/>
  
  <!-- Mortar lines -->
  <line x1="15" y1="67" x2="85" y2="67" stroke="white" stroke-width="1" opacity="0.5"/>
  <line x1="15" y1="84" x2="85" y2="84" stroke="white" stroke-width="1" opacity="0.5"/>
  <line x1="45" y1="55" x2="45" y2="67" stroke="white" stroke-width="1" opacity="0.5"/>
  <line x1="50" y1="72" x2="50" y2="84" stroke="white" stroke-width="1" opacity="0.5"/>
</svg>